<svg xmlns="http://www.w3.org/2000/svg" viewBox="0 0 220 240" width="220" height="240">
  <defs>
    <radialGradient id="glowMo" cx="50%" cy="38%" r="65%">
      <stop offset="0%" stop-color="#ffcf8a" stop-opacity="0.45"/>
      <stop offset="100%" stop-color="#ffcf8a" stop-opacity="0"/>
    </radialGradient>
    <linearGradient id="hairMo" x1="0%" y1="0%" x2="20%" y2="100%">
      <stop offset="0%" stop-color="#e8b98a"/>
      <stop offset="45%" stop-color="#c08a52"/>
      <stop offset="100%" stop-color="#8a5a2e"/>
    </linearGradient>
    <radialGradient id="irisMo" cx="42%" cy="35%" r="65%">
      <stop offset="0%" stop-color="#ffd9a3"/>
      <stop offset="55%" stop-color="#c47f3a"/>
      <stop offset="100%" stop-color="#6b3d16"/>
    </radialGradient>
    <linearGradient id="sweaterMo" x1="0%" y1="0%" x2="0%" y2="100%">
      <stop offset="0%" stop-color="#f0a35c"/>
      <stop offset="100%" stop-color="#c97a34"/>
    </linearGradient>
    <radialGradient id="skinShadeMo" cx="50%" cy="30%" r="70%">
      <stop offset="0%" stop-color="#ffffff" stop-opacity="0.35"/>
      <stop offset="100%" stop-color="#ffffff" stop-opacity="0"/>
    </radialGradient>
  </defs>

  <ellipse cx="110" cy="118" rx="100" ry="118" fill="url(#glowMo)"/>

  <g fill="#fff3e2" opacity="0.9">
    <path d="M24 68 l4 9 l9 4 l-9 4 l-4 9 l-4 -9 l-9 -4 l9 -4 Z"/>
    <circle cx="194" cy="56" r="2.4"/>
    <circle cx="32" cy="130" r="2.6"/>
  </g>

  <!-- braided twin tails -->
  <path d="M42 100 C 24 118, 20 160, 30 200 C 40 194, 46 178, 46 160 C 46 178 52 190 60 196
           C 50 170 46 130 42 100 Z" fill="url(#hairMo)"/>
  <path d="M178 100 C 196 118, 200 160, 190 200 C 180 194, 174 178, 174 160 C 174 178 168 190 160 196
           C 170 170 174 130 178 100 Z" fill="url(#hairMo)"/>
  <g stroke="#8a5a2e" stroke-width="2.4" opacity="0.6">
    <path d="M32 130 L46 138"/>
    <path d="M30 150 L46 156"/>
    <path d="M32 170 L48 174"/>
    <path d="M188 130 L174 138"/>
    <path d="M190 150 L174 156"/>
    <path d="M188 170 L172 174"/>
  </g>
  <circle cx="34" cy="196" r="5" fill="#e0473a"/>
  <circle cx="186" cy="196" r="5" fill="#e0473a"/>

  <!-- shoulders / turtleneck -->
  <path d="M38 210 Q110 246 182 210 L182 240 L38 240 Z" fill="#a8632a"/>
  <path d="M78 196 Q110 214 142 196 L146 240 L74 240 Z" fill="url(#sweaterMo)"/>
  <path d="M84 196 Q110 210 136 196 Q110 204 84 196 Z" fill="#8a5a2e"/>

  <!-- neck -->
  <path d="M96 186 L124 186 L122 200 Q110 206 98 200 Z" fill="#ffe3c9"/>

  <!-- head -->
  <circle cx="110" cy="118" r="64" fill="#ffe3c9"/>
  <ellipse cx="110" cy="100" rx="60" ry="50" fill="url(#skinShadeMo)"/>

  <!-- ears blush -->
  <circle cx="76" cy="128" r="10" fill="#ff9d6b" opacity="0.4"/>
  <circle cx="144" cy="128" r="10" fill="#ff9d6b" opacity="0.4"/>

  <!-- freckles -->
  <g fill="#c98a52" opacity="0.6">
    <circle cx="72" cy="118" r="1.4"/>
    <circle cx="78" cy="122" r="1.4"/>
    <circle cx="84" cy="117" r="1.4"/>
    <circle cx="136" cy="117" r="1.4"/>
    <circle cx="142" cy="122" r="1.4"/>
    <circle cx="148" cy="118" r="1.4"/>
  </g>

  <!-- eyebrows -->
  <path d="M70 90 Q82 83 94 89" stroke="#6b3d16" stroke-width="3" fill="none" stroke-linecap="round"/>
  <path d="M126 89 Q138 83 150 90" stroke="#6b3d16" stroke-width="3" fill="none" stroke-linecap="round"/>

  <!-- gentle eyes -->
  <g>
    <path d="M66 108 Q72 94 92 97 Q104 100 101 116 Q92 130 76 126 Q66 122 66 108 Z" fill="url(#irisMo)"/>
    <path d="M64 106 Q70 90 94 94" stroke="#4a2a10" stroke-width="4.5" fill="none" stroke-linecap="round"/>
    <ellipse cx="90" cy="105" rx="6.5" ry="9" fill="#4a2a10"/>
    <circle cx="87" cy="100" r="4.2" fill="#ffffff"/>
    <circle cx="96" cy="114" r="2.2" fill="#ffffff" opacity="0.9"/>
  </g>
  <g>
    <path d="M154 108 Q148 94 128 97 Q116 100 119 116 Q128 130 144 126 Q154 122 154 108 Z" fill="url(#irisMo)"/>
    <path d="M156 106 Q150 90 126 94" stroke="#4a2a10" stroke-width="4.5" fill="none" stroke-linecap="round"/>
    <ellipse cx="130" cy="105" rx="6.5" ry="9" fill="#4a2a10"/>
    <circle cx="127" cy="100" r="4.2" fill="#ffffff"/>
    <circle cx="136" cy="114" r="2.2" fill="#ffffff" opacity="0.9"/>
  </g>

  <!-- nose + soft smile -->
  <path d="M110 122 q2 4 -1 7" stroke="#e0a479" stroke-width="1.6" fill="none" stroke-linecap="round"/>
  <path d="M101 136 Q110 142 119 136" stroke="#a8562f" stroke-width="2.2" fill="none" stroke-linecap="round"/>

  <!-- blush -->
  <ellipse cx="78" cy="130" rx="9" ry="5" fill="#ff9d6b" opacity="0.4"/>
  <ellipse cx="142" cy="130" rx="9" ry="5" fill="#ff9d6b" opacity="0.4"/>

  <!-- front hair / center-parted bangs -->
  <path d="M46 100 C 40 52 72 20 110 20 C 148 20 180 52 174 100
           C 164 76 150 92 138 78 C 128 92 116 74 110 84
           C 104 74 92 92 82 78 C 70 92 56 76 46 100 Z" fill="url(#hairMo)"/>
  <path d="M46 100 C 34 118 32 144 42 162 C 46 138 50 118 58 104 Z" fill="url(#hairMo)"/>
  <path d="M174 100 C 186 118 188 144 178 162 C 174 138 170 118 162 104 Z" fill="url(#hairMo)"/>
  <path d="M58 40 C 74 22 96 16 110 17" stroke="#ffffff" stroke-width="3" fill="none" opacity="0.35" stroke-linecap="round"/>

  <!-- beret -->
  <ellipse cx="106" cy="24" rx="34" ry="18" fill="#c9432f"/>
  <ellipse cx="106" cy="20" rx="34" ry="16" fill="#e0473a"/>
  <circle cx="132" cy="10" r="4" fill="#8a2116"/>
</svg>
